<svg xmlns="http://www.w3.org/2000/svg" viewBox="0 0 100 120" width="100" height="120">
  <!-- Mystic 2: Crystal emerging from a crescent moon — single continuous line -->
  <path
    d="M72,85
       C56,95 35,92 24,78
       C13,64 14,44 25,30
       C36,16 53,14 68,22
       C55,18 42,24 35,36
       C28,48 28,64 36,76
       C44,88 60,89 72,85
       L65,80
       L55,46
       L50,22
       L45,46
       L38,72
       L45,46
       L42,34
       L50,22
       L58,34
       L55,46
       L65,80
       L55,80
       L55,46
       L45,80
       L38,72"
    fill="none"
    stroke="#1a1a1a"
    stroke-width="1.6"
    stroke-linecap="round"
    stroke-linejoin="round"
  />
</svg>