<svg xmlns="http://www.w3.org/2000/svg" viewBox="0 0 100 120" width="100" height="120">
  <!-- Mystic 1: Crystal inside an eye — the all-seeing eye with a gem as the iris -->
  <path
    d="M5,55
       C5,55 25,20 50,20
       C75,20 95,55 95,55
       C95,55 75,90 50,90
       C25,90 5,55 5,55
       L50,55
       L40,35
       L50,28
       L60,35
       L68,55
       L60,75
       L50,80
       L40,75
       L32,55
       L40,35
       L60,35
       L68,55
       L60,75
       L40,75
       L32,55
       L50,55
       L50,28
       L50,80"
    fill="none"
    stroke="#1a1a1a"
    stroke-width="1.6"
    stroke-linecap="round"
    stroke-linejoin="round"
  />
</svg>