<svg xmlns="http://www.w3.org/2000/svg" viewBox="0 0 100 120" width="100" height="120">
  <!-- Mystic 5: Crystal pendulum hanging from a star — divination tool, single continuous line -->
  <path
    d="M50,6
       L54,18
       L67,18
       L57,26
       L61,38
       L50,30
       L39,38
       L43,26
       L33,18
       L46,18
       L50,6
       L50,30
       L50,44
       L44,48
       L38,56
       L36,68
       L38,80
       L44,90
       L50,108
       L56,90
       L62,80
       L64,68
       L62,56
       L56,48
       L50,44
       L56,48
       L62,56
       L56,68
       L50,44
       L44,48
       L38,56
       L44,68
       L50,44
       L50,108
       L44,68
       L56,68
       L50,108"
    fill="none"
    stroke="#1a1a1a"
    stroke-width="1.5"
    stroke-linecap="round"
    stroke-linejoin="round"
  />
</svg>