<svg xmlns="http://www.w3.org/2000/svg" viewBox="0 0 100 120" width="100" height="120">
  <!-- Mystic 3: Crystal on an open palm — fortune teller's hand holding a gem, single line -->
  <path
    d="M28,110
       L30,88
       L28,78
       L32,60
       L34,52
       L30,44
       L28,38
       L30,34
       L33,38
       L36,48
       L38,42
       L36,30
       L34,24
       L36,20
       L39,24
       L42,34
       L44,44
       L44,36
       L42,24
       L40,16
       L43,14
       L47,20
       L50,34
       L52,44
       L54,36
       L54,26
       L53,20
       L56,18
       L59,24
       L60,34
       L58,48
       L62,40
       L64,34
       L66,32
       L68,34
       L66,40
       L62,50
       L58,58
       L54,64
       L58,68
       L62,88
       L60,110
       L44,110
       L46,82
       L50,68
       L46,60
       L44,56
       L40,60
       L38,68
       L36,82
       L34,110
       L28,110
       L34,110
       L44,110
       L60,110"
    fill="none"
    stroke="#1a1a1a"
    stroke-width="1.4"
    stroke-linecap="round"
    stroke-linejoin="round"
  />
  <!-- The crystal floating above the palm — diamond shape in the center -->
</svg>